<?xml version="1.0" encoding="UTF-8"?>
<svg viewBox="0 0 856 376" xmlns="http://www.w3.org/2000/svg">
  <!-- V2 Seatmap System -->

  <g class="container">
  <g class="container">
  <g class="container">
  <rect x="20" y="20" width="384" height="144" fill="lightgreen" />
  <g class="container">
  <rect x="20" y="116" width="384" height="48" fill="#BFBFBF" />
  <rect x="320" y="122" width="72" height="6" rx="3" ry="3" fill="#8B4513" /><rect x="320" y="152" width="72" height="6" rx="3" ry="3" fill="#8B4513" /><rect x="320" y="128" width="72" height="24" rx="3" ry="3" fill="#D2B48C" stroke="#333" stroke-width="1" /><text x="356" y="140" text-anchor="middle" dominant-baseline="central" font-size="6" fill="#000">BL1</text>
  <rect x="224" y="122" width="72" height="6" rx="3" ry="3" fill="#8B4513" /><rect x="224" y="152" width="72" height="6" rx="3" ry="3" fill="#8B4513" /><rect x="224" y="128" width="72" height="24" rx="3" ry="3" fill="#D2B48C" stroke="#333" stroke-width="1" /><text x="260" y="140" text-anchor="middle" dominant-baseline="central" font-size="6" fill="#000">BL2</text>
  <rect x="128" y="122" width="72" height="6" rx="3" ry="3" fill="#8B4513" /><rect x="128" y="152" width="72" height="6" rx="3" ry="3" fill="#8B4513" /><rect x="128" y="128" width="72" height="24" rx="3" ry="3" fill="#D2B48C" stroke="#333" stroke-width="1" /><text x="164" y="140" text-anchor="middle" dominant-baseline="central" font-size="6" fill="#000">BL3</text>
  <rect x="32" y="122" width="72" height="6" rx="3" ry="3" fill="#8B4513" /><rect x="32" y="152" width="72" height="6" rx="3" ry="3" fill="#8B4513" /><rect x="32" y="128" width="72" height="24" rx="3" ry="3" fill="#D2B48C" stroke="#333" stroke-width="1" /><text x="68" y="140" text-anchor="middle" dominant-baseline="central" font-size="6" fill="#000">BL4</text>
</g>
  <g class="container">
  <circle cx="388.4852813742386" cy="83.51471862576143" r="6" fill="#8B4513" /><circle cx="388.4852813742386" cy="100.48528137423857" r="6" fill="#8B4513" /><circle cx="371.5147186257614" cy="100.48528137423857" r="6" fill="#8B4513" /><circle cx="371.5147186257614" cy="83.51471862576143" r="6" fill="#8B4513" /><ellipse cx="380" cy="92" rx="12" ry="12" fill="#D2B48C" stroke="#333" stroke-width="1" /><text x="380" y="92" text-anchor="middle" dominant-baseline="central" font-size="6" fill="#000">CL1</text>
  <circle cx="340.4852813742386" cy="83.51471862576143" r="6" fill="#8B4513" /><circle cx="340.4852813742386" cy="100.48528137423857" r="6" fill="#8B4513" /><circle cx="323.5147186257614" cy="100.48528137423857" r="6" fill="#8B4513" /><circle cx="323.5147186257614" cy="83.51471862576143" r="6" fill="#8B4513" /><ellipse cx="332" cy="92" rx="12" ry="12" fill="#D2B48C" stroke="#333" stroke-width="1" /><text x="332" y="92" text-anchor="middle" dominant-baseline="central" font-size="6" fill="#000">CL2</text>
  <circle cx="292.4852813742386" cy="83.51471862576143" r="6" fill="#8B4513" /><circle cx="292.4852813742386" cy="100.48528137423857" r="6" fill="#8B4513" /><circle cx="275.5147186257614" cy="100.48528137423857" r="6" fill="#8B4513" /><circle cx="275.5147186257614" cy="83.51471862576143" r="6" fill="#8B4513" /><ellipse cx="284" cy="92" rx="12" ry="12" fill="#D2B48C" stroke="#333" stroke-width="1" /><text x="284" y="92" text-anchor="middle" dominant-baseline="central" font-size="6" fill="#000">CL3</text>
  <circle cx="244.48528137423858" cy="83.51471862576143" r="6" fill="#8B4513" /><circle cx="244.48528137423858" cy="100.48528137423857" r="6" fill="#8B4513" /><circle cx="227.51471862576142" cy="100.48528137423857" r="6" fill="#8B4513" /><circle cx="227.51471862576142" cy="83.51471862576143" r="6" fill="#8B4513" /><ellipse cx="236" cy="92" rx="12" ry="12" fill="#D2B48C" stroke="#333" stroke-width="1" /><text x="236" y="92" text-anchor="middle" dominant-baseline="central" font-size="6" fill="#000">CL4</text>
  <circle cx="196.48528137423858" cy="83.51471862576143" r="6" fill="#8B4513" /><circle cx="196.48528137423858" cy="100.48528137423857" r="6" fill="#8B4513" /><circle cx="179.51471862576142" cy="100.48528137423857" r="6" fill="#8B4513" /><circle cx="179.51471862576142" cy="83.51471862576143" r="6" fill="#8B4513" /><ellipse cx="188" cy="92" rx="12" ry="12" fill="#D2B48C" stroke="#333" stroke-width="1" /><text x="188" y="92" text-anchor="middle" dominant-baseline="central" font-size="6" fill="#000">CL5</text>
  <circle cx="148.48528137423858" cy="83.51471862576143" r="6" fill="#8B4513" /><circle cx="148.48528137423858" cy="100.48528137423857" r="6" fill="#8B4513" /><circle cx="131.51471862576142" cy="100.48528137423857" r="6" fill="#8B4513" /><circle cx="131.51471862576142" cy="83.51471862576143" r="6" fill="#8B4513" /><ellipse cx="140" cy="92" rx="12" ry="12" fill="#D2B48C" stroke="#333" stroke-width="1" /><text x="140" y="92" text-anchor="middle" dominant-baseline="central" font-size="6" fill="#000">CL6</text>
</g>
  <g class="container">
  <circle cx="388.4852813742386" cy="35.51471862576143" r="6" fill="#8B4513" /><circle cx="388.4852813742386" cy="52.48528137423857" r="6" fill="#8B4513" /><circle cx="371.5147186257614" cy="52.48528137423857" r="6" fill="#8B4513" /><circle cx="371.5147186257614" cy="35.51471862576143" r="6" fill="#8B4513" /><ellipse cx="380" cy="44" rx="12" ry="12" fill="#D2B48C" stroke="#333" stroke-width="1" /><text x="380" y="44" text-anchor="middle" dominant-baseline="central" font-size="6" fill="#000">DL1</text>
  <circle cx="340.4852813742386" cy="35.51471862576143" r="6" fill="#8B4513" /><circle cx="340.4852813742386" cy="52.48528137423857" r="6" fill="#8B4513" /><circle cx="323.5147186257614" cy="52.48528137423857" r="6" fill="#8B4513" /><circle cx="323.5147186257614" cy="35.51471862576143" r="6" fill="#8B4513" /><ellipse cx="332" cy="44" rx="12" ry="12" fill="#D2B48C" stroke="#333" stroke-width="1" /><text x="332" y="44" text-anchor="middle" dominant-baseline="central" font-size="6" fill="#000">DL2</text>
  <circle cx="292.4852813742386" cy="35.51471862576143" r="6" fill="#8B4513" /><circle cx="292.4852813742386" cy="52.48528137423857" r="6" fill="#8B4513" /><circle cx="275.5147186257614" cy="52.48528137423857" r="6" fill="#8B4513" /><circle cx="275.5147186257614" cy="35.51471862576143" r="6" fill="#8B4513" /><ellipse cx="284" cy="44" rx="12" ry="12" fill="#D2B48C" stroke="#333" stroke-width="1" /><text x="284" y="44" text-anchor="middle" dominant-baseline="central" font-size="6" fill="#000">DL3</text>
  <circle cx="244.48528137423858" cy="35.51471862576143" r="6" fill="#8B4513" /><circle cx="244.48528137423858" cy="52.48528137423857" r="6" fill="#8B4513" /><circle cx="227.51471862576142" cy="52.48528137423857" r="6" fill="#8B4513" /><circle cx="227.51471862576142" cy="35.51471862576143" r="6" fill="#8B4513" /><ellipse cx="236" cy="44" rx="12" ry="12" fill="#D2B48C" stroke="#333" stroke-width="1" /><text x="236" y="44" text-anchor="middle" dominant-baseline="central" font-size="6" fill="#000">DL4</text>
  <circle cx="196.48528137423858" cy="35.51471862576143" r="6" fill="#8B4513" /><circle cx="196.48528137423858" cy="52.48528137423857" r="6" fill="#8B4513" /><circle cx="179.51471862576142" cy="52.48528137423857" r="6" fill="#8B4513" /><circle cx="179.51471862576142" cy="35.51471862576143" r="6" fill="#8B4513" /><ellipse cx="188" cy="44" rx="12" ry="12" fill="#D2B48C" stroke="#333" stroke-width="1" /><text x="188" y="44" text-anchor="middle" dominant-baseline="central" font-size="6" fill="#000">DL5</text>
  <circle cx="148.48528137423858" cy="35.51471862576143" r="6" fill="#8B4513" /><circle cx="148.48528137423858" cy="52.48528137423857" r="6" fill="#8B4513" /><circle cx="131.51471862576142" cy="52.48528137423857" r="6" fill="#8B4513" /><circle cx="131.51471862576142" cy="35.51471862576143" r="6" fill="#8B4513" /><ellipse cx="140" cy="44" rx="12" ry="12" fill="#D2B48C" stroke="#333" stroke-width="1" /><text x="140" y="44" text-anchor="middle" dominant-baseline="central" font-size="6" fill="#000">DL6</text>
</g>
</g>
  <g class="container">
  <rect x="404" y="20" width="48" height="144" fill="lightgray" />
</g>
  <g class="container">
  <rect x="452" y="20" width="384" height="144" fill="lightgreen" />
  <g class="container">
  <rect x="452" y="116" width="384" height="48" fill="#BFBFBF" />
  <rect x="464" y="122" width="72" height="6" rx="3" ry="3" fill="#8B4513" /><rect x="464" y="152" width="72" height="6" rx="3" ry="3" fill="#8B4513" /><rect x="464" y="128" width="72" height="24" rx="3" ry="3" fill="#D2B48C" stroke="#333" stroke-width="1" /><text x="500" y="140" text-anchor="middle" dominant-baseline="central" font-size="6" fill="#000">BR1</text>
  <rect x="560" y="122" width="72" height="6" rx="3" ry="3" fill="#8B4513" /><rect x="560" y="152" width="72" height="6" rx="3" ry="3" fill="#8B4513" /><rect x="560" y="128" width="72" height="24" rx="3" ry="3" fill="#D2B48C" stroke="#333" stroke-width="1" /><text x="596" y="140" text-anchor="middle" dominant-baseline="central" font-size="6" fill="#000">BR2</text>
  <rect x="656" y="122" width="72" height="6" rx="3" ry="3" fill="#8B4513" /><rect x="656" y="152" width="72" height="6" rx="3" ry="3" fill="#8B4513" /><rect x="656" y="128" width="72" height="24" rx="3" ry="3" fill="#D2B48C" stroke="#333" stroke-width="1" /><text x="692" y="140" text-anchor="middle" dominant-baseline="central" font-size="6" fill="#000">BR3</text>
  <rect x="752" y="122" width="72" height="6" rx="3" ry="3" fill="#8B4513" /><rect x="752" y="152" width="72" height="6" rx="3" ry="3" fill="#8B4513" /><rect x="752" y="128" width="72" height="24" rx="3" ry="3" fill="#D2B48C" stroke="#333" stroke-width="1" /><text x="788" y="140" text-anchor="middle" dominant-baseline="central" font-size="6" fill="#000">BR4</text>
</g>
  <g class="container">
  <circle cx="484.4852813742386" cy="83.51471862576143" r="6" fill="#8B4513" /><circle cx="484.4852813742386" cy="100.48528137423857" r="6" fill="#8B4513" /><circle cx="467.5147186257614" cy="100.48528137423857" r="6" fill="#8B4513" /><circle cx="467.5147186257614" cy="83.51471862576143" r="6" fill="#8B4513" /><ellipse cx="476" cy="92" rx="12" ry="12" fill="#D2B48C" stroke="#333" stroke-width="1" /><text x="476" y="92" text-anchor="middle" dominant-baseline="central" font-size="6" fill="#000">CR1</text>
  <circle cx="532.4852813742385" cy="83.51471862576143" r="6" fill="#8B4513" /><circle cx="532.4852813742385" cy="100.48528137423857" r="6" fill="#8B4513" /><circle cx="515.5147186257615" cy="100.48528137423857" r="6" fill="#8B4513" /><circle cx="515.5147186257615" cy="83.51471862576143" r="6" fill="#8B4513" /><ellipse cx="524" cy="92" rx="12" ry="12" fill="#D2B48C" stroke="#333" stroke-width="1" /><text x="524" y="92" text-anchor="middle" dominant-baseline="central" font-size="6" fill="#000">CR2</text>
  <circle cx="580.4852813742385" cy="83.51471862576143" r="6" fill="#8B4513" /><circle cx="580.4852813742385" cy="100.48528137423857" r="6" fill="#8B4513" /><circle cx="563.5147186257615" cy="100.48528137423857" r="6" fill="#8B4513" /><circle cx="563.5147186257615" cy="83.51471862576143" r="6" fill="#8B4513" /><ellipse cx="572" cy="92" rx="12" ry="12" fill="#D2B48C" stroke="#333" stroke-width="1" /><text x="572" y="92" text-anchor="middle" dominant-baseline="central" font-size="6" fill="#000">CR3</text>
  <circle cx="628.4852813742385" cy="83.51471862576143" r="6" fill="#8B4513" /><circle cx="628.4852813742385" cy="100.48528137423857" r="6" fill="#8B4513" /><circle cx="611.5147186257615" cy="100.48528137423857" r="6" fill="#8B4513" /><circle cx="611.5147186257615" cy="83.51471862576143" r="6" fill="#8B4513" /><ellipse cx="620" cy="92" rx="12" ry="12" fill="#D2B48C" stroke="#333" stroke-width="1" /><text x="620" y="92" text-anchor="middle" dominant-baseline="central" font-size="6" fill="#000">CR4</text>
  <circle cx="676.4852813742385" cy="83.51471862576143" r="6" fill="#8B4513" /><circle cx="676.4852813742385" cy="100.48528137423857" r="6" fill="#8B4513" /><circle cx="659.5147186257615" cy="100.48528137423857" r="6" fill="#8B4513" /><circle cx="659.5147186257615" cy="83.51471862576143" r="6" fill="#8B4513" /><ellipse cx="668" cy="92" rx="12" ry="12" fill="#D2B48C" stroke="#333" stroke-width="1" /><text x="668" y="92" text-anchor="middle" dominant-baseline="central" font-size="6" fill="#000">CR5</text>
  <circle cx="724.4852813742385" cy="83.51471862576143" r="6" fill="#8B4513" /><circle cx="724.4852813742385" cy="100.48528137423857" r="6" fill="#8B4513" /><circle cx="707.5147186257615" cy="100.48528137423857" r="6" fill="#8B4513" /><circle cx="707.5147186257615" cy="83.51471862576143" r="6" fill="#8B4513" /><ellipse cx="716" cy="92" rx="12" ry="12" fill="#D2B48C" stroke="#333" stroke-width="1" /><text x="716" y="92" text-anchor="middle" dominant-baseline="central" font-size="6" fill="#000">CR6</text>
</g>
  <g class="container">
  <circle cx="484.4852813742386" cy="35.51471862576143" r="6" fill="#8B4513" /><circle cx="484.4852813742386" cy="52.48528137423857" r="6" fill="#8B4513" /><circle cx="467.5147186257614" cy="52.48528137423857" r="6" fill="#8B4513" /><circle cx="467.5147186257614" cy="35.51471862576143" r="6" fill="#8B4513" /><ellipse cx="476" cy="44" rx="12" ry="12" fill="#D2B48C" stroke="#333" stroke-width="1" /><text x="476" y="44" text-anchor="middle" dominant-baseline="central" font-size="6" fill="#000">DR1</text>
  <circle cx="532.4852813742385" cy="35.51471862576143" r="6" fill="#8B4513" /><circle cx="532.4852813742385" cy="52.48528137423857" r="6" fill="#8B4513" /><circle cx="515.5147186257615" cy="52.48528137423857" r="6" fill="#8B4513" /><circle cx="515.5147186257615" cy="35.51471862576143" r="6" fill="#8B4513" /><ellipse cx="524" cy="44" rx="12" ry="12" fill="#D2B48C" stroke="#333" stroke-width="1" /><text x="524" y="44" text-anchor="middle" dominant-baseline="central" font-size="6" fill="#000">DR2</text>
  <circle cx="580.4852813742385" cy="35.51471862576143" r="6" fill="#8B4513" /><circle cx="580.4852813742385" cy="52.48528137423857" r="6" fill="#8B4513" /><circle cx="563.5147186257615" cy="52.48528137423857" r="6" fill="#8B4513" /><circle cx="563.5147186257615" cy="35.51471862576143" r="6" fill="#8B4513" /><ellipse cx="572" cy="44" rx="12" ry="12" fill="#D2B48C" stroke="#333" stroke-width="1" /><text x="572" y="44" text-anchor="middle" dominant-baseline="central" font-size="6" fill="#000">DR3</text>
  <circle cx="628.4852813742385" cy="35.51471862576143" r="6" fill="#8B4513" /><circle cx="628.4852813742385" cy="52.48528137423857" r="6" fill="#8B4513" /><circle cx="611.5147186257615" cy="52.48528137423857" r="6" fill="#8B4513" /><circle cx="611.5147186257615" cy="35.51471862576143" r="6" fill="#8B4513" /><ellipse cx="620" cy="44" rx="12" ry="12" fill="#D2B48C" stroke="#333" stroke-width="1" /><text x="620" y="44" text-anchor="middle" dominant-baseline="central" font-size="6" fill="#000">DR4</text>
  <circle cx="676.4852813742385" cy="35.51471862576143" r="6" fill="#8B4513" /><circle cx="676.4852813742385" cy="52.48528137423857" r="6" fill="#8B4513" /><circle cx="659.5147186257615" cy="52.48528137423857" r="6" fill="#8B4513" /><circle cx="659.5147186257615" cy="35.51471862576143" r="6" fill="#8B4513" /><ellipse cx="668" cy="44" rx="12" ry="12" fill="#D2B48C" stroke="#333" stroke-width="1" /><text x="668" y="44" text-anchor="middle" dominant-baseline="central" font-size="6" fill="#000">DR5</text>
  <circle cx="724.4852813742385" cy="35.51471862576143" r="6" fill="#8B4513" /><circle cx="724.4852813742385" cy="52.48528137423857" r="6" fill="#8B4513" /><circle cx="707.5147186257615" cy="52.48528137423857" r="6" fill="#8B4513" /><circle cx="707.5147186257615" cy="35.51471862576143" r="6" fill="#8B4513" /><ellipse cx="716" cy="44" rx="12" ry="12" fill="#D2B48C" stroke="#333" stroke-width="1" /><text x="716" y="44" text-anchor="middle" dominant-baseline="central" font-size="6" fill="#000">DR6</text>
</g>
</g>
</g>
  <g class="container">
  <rect x="20" y="164" width="816" height="48" fill="lightgray" />
</g>
  <g class="container">
  <g class="container">
  <rect x="212" y="212" width="192" height="144" fill="#F0E6D8" />
  <g class="container">
  <rect x="212" y="212" width="192" height="48" fill="#BFBFBF" />
  <circle cx="388.4852813742386" cy="227.51471862576142" r="6" fill="#8B4513" /><circle cx="388.4852813742386" cy="244.48528137423858" r="6" fill="#8B4513" /><circle cx="371.5147186257614" cy="244.48528137423858" r="6" fill="#8B4513" /><circle cx="371.5147186257614" cy="227.51471862576142" r="6" fill="#8B4513" /><ellipse cx="380" cy="236" rx="12" ry="12" fill="#D2B48C" stroke="#333" stroke-width="1" /><text x="380" y="236" text-anchor="middle" dominant-baseline="central" font-size="6" fill="#000">AL1</text>
  <circle cx="340.4852813742386" cy="227.51471862576142" r="6" fill="#8B4513" /><circle cx="340.4852813742386" cy="244.48528137423858" r="6" fill="#8B4513" /><circle cx="323.5147186257614" cy="244.48528137423858" r="6" fill="#8B4513" /><circle cx="323.5147186257614" cy="227.51471862576142" r="6" fill="#8B4513" /><ellipse cx="332" cy="236" rx="12" ry="12" fill="#D2B48C" stroke="#333" stroke-width="1" /><text x="332" y="236" text-anchor="middle" dominant-baseline="central" font-size="6" fill="#000">AL2</text>
  <circle cx="292.4852813742386" cy="227.51471862576142" r="6" fill="#8B4513" /><circle cx="292.4852813742386" cy="244.48528137423858" r="6" fill="#8B4513" /><circle cx="275.5147186257614" cy="244.48528137423858" r="6" fill="#8B4513" /><circle cx="275.5147186257614" cy="227.51471862576142" r="6" fill="#8B4513" /><ellipse cx="284" cy="236" rx="12" ry="12" fill="#D2B48C" stroke="#333" stroke-width="1" /><text x="284" y="236" text-anchor="middle" dominant-baseline="central" font-size="6" fill="#000">AL3</text>
  <circle cx="244.48528137423858" cy="227.51471862576142" r="6" fill="#8B4513" /><circle cx="244.48528137423858" cy="244.48528137423858" r="6" fill="#8B4513" /><circle cx="227.51471862576142" cy="244.48528137423858" r="6" fill="#8B4513" /><circle cx="227.51471862576142" cy="227.51471862576142" r="6" fill="#8B4513" /><ellipse cx="236" cy="236" rx="12" ry="12" fill="#D2B48C" stroke="#333" stroke-width="1" /><text x="236" y="236" text-anchor="middle" dominant-baseline="central" font-size="6" fill="#000">AL4</text>
</g>
  <g class="container">
  <g class="container">
  <rect x="284" y="260" width="120" height="48" fill="lightblue" />
  <circle cx="388.4852813742386" cy="275.5147186257614" r="6" fill="#8B4513" /><circle cx="388.4852813742386" cy="292.4852813742386" r="6" fill="#8B4513" /><circle cx="371.5147186257614" cy="292.4852813742386" r="6" fill="#8B4513" /><circle cx="371.5147186257614" cy="275.5147186257614" r="6" fill="#8B4513" /><ellipse cx="380" cy="284" rx="12" ry="12" fill="#D2B48C" stroke="#333" stroke-width="1" /><text x="380" y="284" text-anchor="middle" dominant-baseline="central" font-size="6" fill="#000">I3</text>
  <circle cx="316.4852813742386" cy="275.5147186257614" r="6" fill="#8B4513" /><circle cx="316.4852813742386" cy="292.4852813742386" r="6" fill="#8B4513" /><circle cx="299.5147186257614" cy="292.4852813742386" r="6" fill="#8B4513" /><circle cx="299.5147186257614" cy="275.5147186257614" r="6" fill="#8B4513" /><ellipse cx="308" cy="284" rx="12" ry="12" fill="#D2B48C" stroke="#333" stroke-width="1" /><text x="308" y="284" text-anchor="middle" dominant-baseline="central" font-size="6" fill="#000">I2</text>
</g>
  <g class="container">
  <rect x="356" y="308" width="48" height="48" fill="lightgreen" />
  <circle cx="388.4852813742386" cy="323.5147186257614" r="6" fill="#8B4513" /><circle cx="388.4852813742386" cy="340.4852813742386" r="6" fill="#8B4513" /><circle cx="371.5147186257614" cy="340.4852813742386" r="6" fill="#8B4513" /><circle cx="371.5147186257614" cy="323.5147186257614" r="6" fill="#8B4513" /><ellipse cx="380" cy="332" rx="12" ry="12" fill="#D2B48C" stroke="#333" stroke-width="1" /><text x="380" y="332" text-anchor="middle" dominant-baseline="central" font-size="6" fill="#000">I1</text>
</g>
</g>
</g>
</g>
</g>
</svg>